<svg id="Layer_1" data-name="Layer 1" xmlns="http://www.w3.org/2000/svg" xmlns:xlink="http://www.w3.org/1999/xlink" viewBox="0 0 718.49 670.87"><defs><style>.cls-1{fill:url(#linear-gradient);}.cls-2{fill:#d9a72a;}.cls-3{fill:#f0c04a;}.cls-4{fill:#8fb73a;}.cls-5{fill:#ba8d1e;}.cls-6{fill:#ffd878;}.cls-7{fill:#6a872a;}.cls-8{fill:#e6369f;}.cls-9{fill:#aed164;}.cls-10{fill:#bf2525;}.cls-11{fill:#d93d2a;}.cls-12{fill:#f04832;}.cls-13{fill:#f77261;}.cls-14{fill:#d6c48b;}.cls-15{fill:#e2d4a7;}.cls-16{fill:#ece1c3;}.cls-17{fill:#00b2c5;}.cls-18{fill:#fffcf5;}.cls-19{fill:#a4cc4b;}.cls-20{fill:#b4d66d;}.cls-21{fill:#01996d;stroke:#00daa9;stroke-miterlimit:10;stroke-width:13px;}</style><linearGradient id="linear-gradient" x1="69.22" y1="308.71" x2="636.14" y2="308.71" gradientUnits="userSpaceOnUse"><stop offset="0" stop-color="#f9ed98"/><stop offset="1" stop-color="#fbb040"/></linearGradient></defs><path class="cls-1" d="M565.28,55.25a40.91,40.91,0,0,1,40.86,40.86v425.2a40.92,40.92,0,0,1-40.86,40.87H140.08a40.92,40.92,0,0,1-40.86-40.87V96.11a40.91,40.91,0,0,1,40.86-40.86h425.2m0-30H140.08A70.85,70.85,0,0,0,69.22,96.11v425.2a70.86,70.86,0,0,0,70.86,70.87h425.2a70.86,70.86,0,0,0,70.86-70.87V96.11a70.85,70.85,0,0,0-70.86-70.86Z"/><polygon class="cls-2" points="442.52 414.44 476.85 155.41 287.35 206.44 325.64 454.26 442.52 414.44"/><polygon class="cls-3" points="476.85 155.42 292.33 214.78 181.55 143.85 353.87 115.16 377.19 122.79 408.43 133.03 476.85 155.42"/><path class="cls-4" d="M408.46,423.65c6.46-83.15,4.15-172.81.79-256.38l2.36.59a238.58,238.58,0,0,0-58-33L310.5,151.89c20,7.82,44.27,20.09,62.73,34.21l-2.36-.59c3.37,83.57,5.68,173.23-.78,256.38Z"/><path class="cls-4" d="M408.43,133c-12.9,2.74-26.08,4.77-38.89,7.34-8.89,1.78-18.61,2.72-27.25,5.47-14.88,4.73-30.09-.15-45.16-1.23a262.8,262.8,0,0,1,80.06-21.82Z"/><polygon class="cls-5" points="181.55 143.85 234.19 402.46 325.64 454.26 287.35 206.44 181.55 143.85"/><path class="cls-6" d="M196.21,152c8,2.28,14.73,9.71,22.21,14.2,11,6.62,22.79,11.27,34.05,17.06,8.77,4.51,17.5,9.1,26.21,13.86,4,2.18,8.09,3.53,11.13,7.63,54-12.88,107.58-31.93,161.85-41.71.69-.12.71,1.4.15,1.73C425.18,180,396.89,186.65,369,194.19c-25.53,6.89-51.16,13.14-76.62,20.6,1.88,12.75,2.86,26,4.63,38.75q3.42,24.56,6.87,49.11c4.35,31.08,8.78,62.36,11.46,93.87.12,1.49-1.42,1.69-1.69.34-6.38-32.08-10.88-65.17-15.52-97.94-2.17-15.32-4.37-30.64-6.51-46-1.66-11.89-3.84-24.81-4-37.27-2-.69-3.06-3.89-2.82-6.57C271.1,199.78,256,193.49,242,185.8c-8.42-4.62-16.47-10.4-24.82-15.24-7.51-4.36-15.4-7.32-22.47-13.26C192.73,155.62,194.16,151.39,196.21,152Z"/><path class="cls-7" d="M322.86,148c-16.13,3.58-29.27,12.82-45.4,16.4A172.53,172.53,0,0,0,236.6,179.1c.52-.09-11.94-5.37-11.45-5.56-8.91-3.58-8.07-7.54-17-11.11,25.35-6.31,52.93-15.42,78.74-19.54,6.4-1,12.9-2,19.34-1.27s12.91,3.57,16.68,8.85l-2-1.49"/><path class="cls-7" d="M236.41,326.44c5.77,29,10,56,15.93,84.95l30.08,20.19c-2.29-1.74-4.46-24.46-5.24-28.73q-3-16.17-5.9-32.33l-11.79-64.65Q253.76,274.45,248,243q-3-16.17-5.9-32.33c-1.34-7.38-2.05-21.67-5.3-27.58-6.36-11.53-20.06-10.61-28.75-15.62,3.19,13,3.52,23.83,5.43,37.13,1.87,13.09,4.49,25.9,6.74,38.85C225.11,271.45,231,299,236.41,326.44Z"/><path class="cls-8" d="M369.73,79.29q-2.87,18.76-5.75,37.53"/><path class="cls-7" d="M337.23,65.24c-2.82,4-4.38,8.77-5.8,13.47A367.68,367.68,0,0,0,317.37,149c2.91,1.76,6.87.56,9.28-1.85s3.62-5.72,4.76-8.92q12.09-33.93,24.2-67.86C360.31,57.18,343.45,56.39,337.23,65.24Z"/><path class="cls-4" d="M378.93,88.6c1.65-7.71.36-20.5-7.48-25-3.26-1.9-9.3-2.54-13.08-3.34-2.53-.53-14.28.59-15.48-.5,13.64,12.34,5,33.93.28,48.46s-13.07,27-18.88,40.81c9.49,3.92,27.79-14.72,33.53-20.77A83.7,83.7,0,0,0,378.93,88.6Z"/><path class="cls-7" d="M264.73,91.56c-2-7.27,5.32-9.67,11.18-8.56,9.84,1.86,19,8.54,25.66,15.73,8.22,8.85,14.11,19.62,18.88,30.72,2.62,6.12,4.86,13.43,1.48,19.16-9.8-4.21-16.13-13.69-21.73-22.76s-11.53-18.7-21-23.57c-2.76-1.42-5.74-2.38-8.44-3.92S265.56,94.55,264.73,91.56Z"/><path class="cls-4" d="M249.85,104.36c12.76,21.27,45.09,49.72,71.93,42.69-5.67-8.54-17.1-12.88-24.57-19.83-9.34-8.7-20.48-19.33-23.44-32.26-1-4.43-.29-9.49,2.88-12.75a51.37,51.37,0,0,0-20.37,3.52c-4,1.6-8.29,4.21-9.24,8.45C246.26,97.7,248,101.26,249.85,104.36Z"/><path class="cls-7" d="M292.48,141.72c4.89.55,9.66,2.06,14.49,3,5.35,1.05,10.74,1.75,16.13,2.53,1.18.17.91,2.16-.28,2.09-10-.65-21.58-1.85-30.8-5.91A.93.93,0,0,1,292.48,141.72Z"/><polygon class="cls-6" points="349.84 242.25 341.94 239.6 334.78 243.84 334.86 235.52 328.61 230.02 336.55 227.52 339.85 219.88 344.68 226.66 352.97 227.44 348.01 234.13 349.84 242.25"/><polygon class="cls-6" points="375.9 312.81 368.01 310.16 360.85 314.4 360.93 306.08 354.68 300.58 362.62 298.08 365.92 290.44 370.75 297.22 379.04 298 374.08 304.68 375.9 312.81"/><polygon class="cls-6" points="367.63 415.86 359.73 413.21 352.57 417.45 352.65 409.13 346.4 403.63 354.35 401.13 357.64 393.49 362.47 400.27 370.76 401.04 365.8 407.73 367.63 415.86"/><polygon class="cls-6" points="340.04 342.93 332.15 340.28 324.98 344.53 325.06 336.2 318.81 330.7 326.76 328.2 330.06 320.56 334.88 327.34 343.18 328.12 338.21 334.81 340.04 342.93"/><polygon class="cls-2" points="276.37 234.12 270.51 230.47 264.43 233.74 265.45 225.5 261.2 219.23 267.69 217.79 271.14 210.64 274.13 218 280.52 219.85 275.88 225.83 276.37 234.12"/><polygon class="cls-2" points="246.87 383.15 241.01 379.5 234.93 382.77 235.95 374.53 231.7 368.26 238.19 366.82 241.64 359.68 244.63 367.03 251.02 368.88 246.38 374.86 246.87 383.15"/><polygon class="cls-2" points="282.97 327.64 277.11 323.98 271.03 327.25 272.05 319.01 267.8 312.74 274.29 311.31 277.74 304.16 280.73 311.51 287.12 313.36 282.47 319.35 282.97 327.64"/><polygon class="cls-2" points="230.66 289.43 224.8 285.77 218.72 289.05 219.74 280.81 215.49 274.54 221.98 273.1 225.44 265.95 228.43 273.31 234.81 275.16 230.17 281.14 230.66 289.43"/><polygon class="cls-2" points="283.42 278.06 280.84 276.44 278.16 277.89 278.61 274.26 276.74 271.5 279.6 270.86 281.12 267.71 282.44 270.95 285.25 271.77 283.21 274.4 283.42 278.06"/><polygon class="cls-2" points="270.8 290.26 268.22 288.65 265.54 290.09 265.99 286.46 264.12 283.7 266.98 283.07 268.5 279.92 269.82 283.16 272.63 283.97 270.59 286.61 270.8 290.26"/><polygon class="cls-2" points="296.44 385.4 293.86 383.79 291.18 385.23 291.63 381.6 289.76 378.84 292.62 378.21 294.14 375.06 295.46 378.3 298.27 379.11 296.23 381.75 296.44 385.4"/><polygon class="cls-2" points="296.44 350.94 293.86 349.33 291.18 350.77 291.63 347.14 289.76 344.38 292.62 343.75 294.14 340.6 295.46 343.84 298.27 344.65 296.23 347.29 296.44 350.94"/><polygon class="cls-2" points="230.46 322.33 227.88 320.72 225.2 322.16 225.65 318.53 223.78 315.77 226.63 315.14 228.16 311.99 229.47 315.23 232.28 316.04 230.24 318.68 230.46 322.33"/><polygon class="cls-2" points="208.39 199.58 205.81 197.97 203.13 199.41 203.58 195.78 201.71 193.02 204.57 192.38 206.09 189.24 207.41 192.47 210.22 193.29 208.18 195.93 208.39 199.58"/><polygon class="cls-2" points="260.28 249.02 257.7 247.41 255.02 248.85 255.47 245.22 253.59 242.46 256.45 241.82 257.98 238.67 259.29 241.91 262.11 242.73 260.06 245.36 260.28 249.02"/><polygon class="cls-2" points="210.6 237.03 208.01 235.42 205.34 236.86 205.79 233.23 203.91 230.47 206.77 229.84 208.29 226.69 209.61 229.93 212.42 230.74 210.38 233.38 210.6 237.03"/><polygon class="cls-6" points="319.39 186.97 311.46 187.28 305.14 192.08 304.12 186.4 297.39 184.33 304.69 180.5 306.85 174.42 312.38 177.75 320.45 176.06 316.57 181.93 319.39 186.97"/><polygon class="cls-6" points="407.44 145.91 402.13 146.12 397.9 149.33 397.22 145.53 392.71 144.14 397.6 141.59 399.04 137.52 402.75 139.74 408.14 138.61 405.55 142.54 407.44 145.91"/><polygon class="cls-6" points="240.65 148.02 235.34 148.22 231.11 151.44 230.43 147.63 225.93 146.25 230.81 143.69 232.26 139.62 235.96 141.85 241.36 140.72 238.76 144.65 240.65 148.02"/><polygon class="cls-6" points="433.08 156.22 429.91 156.34 427.39 158.26 426.98 155.99 424.3 155.16 427.21 153.64 428.07 151.21 430.28 152.54 433.5 151.86 431.95 154.21 433.08 156.22"/><polygon class="cls-6" points="313.97 161.71 310.81 161.83 308.28 163.75 307.88 161.48 305.19 160.65 308.1 159.13 308.97 156.7 311.17 158.03 314.39 157.35 312.84 159.69 313.97 161.71"/><polygon class="cls-6" points="433.12 242.25 425.23 239.6 418.06 243.84 418.14 235.52 411.89 230.02 419.84 227.52 423.13 219.88 427.96 226.66 436.25 227.44 431.29 234.13 433.12 242.25"/><polygon class="cls-6" points="448.7 312.81 440.8 310.16 433.64 314.4 433.72 306.08 427.47 300.58 435.41 298.08 438.71 290.44 443.54 297.22 451.83 298 446.87 304.68 448.7 312.81"/><polygon class="cls-6" points="432.93 370.06 425.04 367.41 417.88 371.66 417.96 363.33 411.7 357.83 419.65 355.34 422.95 347.69 427.78 354.48 436.07 355.25 431.11 361.94 432.93 370.06"/><polygon class="cls-6" points="427.28 198.09 424.48 197.15 421.94 198.66 421.97 195.7 419.75 193.75 422.57 192.87 423.74 190.16 425.45 192.56 428.39 192.84 426.63 195.21 427.28 198.09"/><polygon class="cls-6" points="355.13 364.07 352.33 363.13 349.79 364.63 349.82 361.68 347.6 359.73 350.42 358.84 351.59 356.13 353.3 358.54 356.25 358.81 354.49 361.19 355.13 364.07"/><polygon class="cls-6" points="457.47 250.99 454.67 250.04 452.13 251.55 452.16 248.6 449.94 246.65 452.76 245.76 453.93 243.05 455.64 245.46 458.59 245.73 456.83 248.1 457.47 250.99"/><polygon class="cls-6" points="453.15 202.34 450.35 201.4 447.81 202.91 447.84 199.95 445.62 198 448.44 197.12 449.61 194.41 451.32 196.81 454.26 197.09 452.51 199.46 453.15 202.34"/><polygon class="cls-6" points="431.6 276.57 428.8 275.63 426.26 277.13 426.29 274.18 424.07 272.23 426.89 271.35 428.06 268.63 429.77 271.04 432.71 271.31 430.95 273.69 431.6 276.57"/><polygon class="cls-6" points="434.32 392.02 431.52 391.08 428.98 392.59 429 389.63 426.79 387.68 429.61 386.8 430.77 384.09 432.49 386.49 435.43 386.77 433.67 389.14 434.32 392.02"/><polygon class="cls-6" points="342.58 272.8 339.78 271.86 337.24 273.36 337.27 270.41 335.05 268.46 337.87 267.57 339.04 264.86 340.75 267.27 343.69 267.54 341.94 269.92 342.58 272.8"/><polygon class="cls-6" points="324.98 264.77 322.18 263.83 319.64 265.33 319.67 262.38 317.45 260.43 320.27 259.55 321.44 256.83 323.15 259.24 326.1 259.51 324.34 261.89 324.98 264.77"/><path class="cls-4" d="M237.31,173.52c-4.59-2.27-9.23-4.46-13.85-6.67-4.14-2-8.43-4.8-13-5.52-2.49-.39-4.87,2.54-2.67,4.6,3.38,3.17,8,4.82,12.18,6.87,4.58,2.28,9.16,4.58,13.78,6.8C237.81,181.55,241.39,175.54,237.31,173.52Z"/><path class="cls-9" d="M408,171.58c-9.11,2.69-18.27,5.2-27.32,8.07-12.6,4-15,3.4-9.72,16,12-5.29,28-10.81,41-12.53C413.16,182.93,415.87,169.27,408,171.58Z"/><path class="cls-9" d="M374.39,94.6a1.92,1.92,0,0,0-2.81-1.14c-3.71,2.83-4.52,7-6.58,11.14a102.7,102.7,0,0,1-10,16.11,97.1,97.1,0,0,1-12,13.07c-4.42,4-9.73,7.21-13.67,11.71a1.67,1.67,0,0,0,1.61,2.76c11.39-3,21.61-14.58,28.69-23.47A98.34,98.34,0,0,0,369.49,110C372,105.38,375.58,100,374.39,94.6Z"/><path class="cls-9" d="M367.59,79.26a2.47,2.47,0,0,0-2.43,2.44c0,.17,0,.35,0,.52a2.39,2.39,0,0,0,4.77,0c0-.17,0-.35,0-.52A2.45,2.45,0,0,0,367.59,79.26Z"/><path class="cls-10" d="M550.76,326.82l-10.62,45.3h0L538.06,381l-14.52,62-2,8.38-14.09,60.17-48.93-11L452,499.08l-45.72-10.26-6.4-1.44h0l-24.57-5.51-5.83-29.06-1-5-7.93-39.49-1-5-6.42-31.91-.77-3.78-4.39-21.86-1.07-5.27-5.08-25.34-1-4.88-4.32-21.5,26.67,4.73,6.72,1.2,26.64,4.73,7.26,1.28h0L433.44,306l6.21,1.11,41,7.28,7.61,1.35,45.83,8.13,6,1.07Z"/><path class="cls-11" d="M369.86,294.71c-6.08,4.15-12.36,8-18.26,12.49-3.36,2.55-6.6,5.24-9.82,8l-1-4.88a157.09,157.09,0,0,1,22.35-16.77Z"/><path class="cls-11" d="M403.76,300.72c-7.86,5.87-15.79,11.66-23.41,17.78-11,8.84-21.55,18.27-32.42,27.27l-1.07-5.27c10-9.22,20.73-17.8,31.27-26.28,6-4.88,12.14-9.92,18.37-14.78Z"/><path class="cls-11" d="M439.65,307.1q-3.78,2.75-7.48,5.53-14.26,10.81-28.59,21.53c-16.75,12.52-33.5,25-50.49,37.25l-.77-3.78c15.35-12,30.91-23.79,46.48-35.55q14.26-10.79,28.6-21.47c2-1.5,4-3.05,6-4.62Z"/><path class="cls-11" d="M488.27,315.73c-6.72,4.25-13.52,8.35-19.83,12.72q-21.37,14.73-42.37,30c-22.2,16.15-44,32.87-65.56,49.85l-1-5c19.76-16,40-31.44,60.49-46.47q21.54-15.78,43.56-30.89,8.52-5.85,17.1-11.58Z"/><path class="cls-11" d="M540.09,324.93c-11.73,9.17-24.85,16.68-37.19,25q-19.83,13.38-39.21,27.4c-22.21,16.12-65.11,51.42-94.23,75.48l-1-5c28-23.95,68.21-57.26,89-72.54q20.44-15,41.52-29.15c11.4-7.65,22.87-15.88,35.11-22.25Z"/><path class="cls-11" d="M540.14,372.13,538.06,381c-5.73,4.75-11.52,9.43-17.29,14.13q-18,14.72-36.15,29.35c-18.76,15.21-52.59,44.17-78.34,64.33l-6.4-1.44c25.45-22.08,63.26-52.23,83.43-68.59q18.68-15.15,37.38-30.27C526.85,383.56,533.32,377.34,540.14,372.13Z"/><path class="cls-11" d="M523.54,443l-2,8.38c-2.39,1.77-4.77,3.49-7,5.24q-10.89,8.68-21.86,17.25c-11.33,8.79-22.47,18.27-34.2,26.69L452,499.08c12.5-11,26.32-20.73,39.37-30.95,7.07-5.54,14.2-11,21.35-16.46C516.26,449,519.81,445.8,523.54,443Z"/><path class="cls-12" d="M670.79,280.16,548.93,326.82,487.44,315.9h0l-15.19-2.69h0l-26.72-4.74h-.08l-14.3-2.57h0l-34.44-6.12h0l-6.54-1.16-19.36-3.44h0l-7.38-1.3-28.7-5.1,59-19.67L421.09,260,476,241.68l28.45,5.62,15.09,3L549,256.11h0l17.72,3.49h0L593.89,265h0l18.2,3.58h0Z"/><path class="cls-13" d="M571.67,315.35c-14.68,2.27-29.51,2.76-44.18,4.83-2.17.3-1.47,3.51.49,3.63,14.88.93,30.29-1.54,45-3.79C576,319.55,574.72,314.88,571.67,315.35Z"/><path class="cls-13" d="M602.07,304.08q-32.49,3.35-65,6.67c-10.83,1.1-21.66,2.21-32.5,3.25-5.65.55-11.39,1.33-17.15,1.9h0l-15.19-2.69c10-2.37,20.61-2.71,30.81-3.77,10.83-1.12,21.67-2.18,32.5-3.26q33.26-3.31,66.53-6.52C604.93,299.37,604.89,303.8,602.07,304.08Z"/><path class="cls-13" d="M650.22,283.18c-35.93,5.73-72.39,9.07-108.5,13.53q-27.72,3.44-55.42,6.8c-13.46,1.62-27.17,3.89-40.81,5h-.08l-14.3-2.57c17.4-4.37,35.86-5.63,53.64-7.87q26.94-3.4,53.89-6.73c36.88-4.55,73.84-10.34,110.84-13.6C652.61,277.42,653.3,282.68,650.22,283.18Z"/><path class="cls-13" d="M612.12,268.56q-55.18,4.35-110,12.44c-35.34,5.26-70.27,12.68-105.46,18.78h0l-6.54-1.16a1.62,1.62,0,0,1,1.33-1.67c36.69-9.94,74.76-15.84,112.34-21.34Q548.68,269,593.89,265h0Z"/><path class="cls-13" d="M566.71,259.6c-16.09,3.11-32.69,4.51-48.85,7q-25.77,4-51.42,8.74-26.4,4.83-52.65,10.43c-14.26,3-28.59,7.17-43.05,9.39h0l-7.38-1.3a2.15,2.15,0,0,1,1.31-1.8c16.59-6.15,34.9-8.92,52.17-12.56q25.51-5.38,51.17-10.06,26.4-4.81,52.93-8.89c9.27-1.43,18.65-3.13,28.06-4.46h0Z"/><path class="cls-13" d="M519.51,250.29c-22.42,3.61-44.81,7.23-67.28,10.54q-17.49,2.6-35,5c-7.59,1-15.68,2.74-23.58,3.27L421.09,260q15.63-2.21,31.24-4.53c17.36-2.6,34.75-5.26,52.09-8.14Z"/><path class="cls-13" d="M653.82,286.22c-9,1.71-16.65,7.24-25.11,10.59-12.49,4.94-25.78,8.4-38.51,12.72-9.92,3.36-19.79,6.78-29.64,10.33-4.52,1.63-9.14,2.63-12.58,5.69-61.07-9.61-121.65-23.81-183-31.09-.78-.1-.81,1-.17,1.28,30.11,11.36,62.1,16.33,93.68,21.95,28.87,5.14,57.86,9.79,86.65,15.35-2.13,9.5-3.24,19.37-5.25,28.89q-3.86,18.3-7.76,36.61c-4.92,23.16-9.93,46.48-13,70-.15,1.11,1.59,1.26,1.9.26,7.22-23.92,12.31-48.58,17.56-73,2.45-11.42,4.94-22.83,7.35-34.26,1.88-8.87,4.35-18.49,4.55-27.78a4.49,4.49,0,0,0,3.19-4.9c15.43-6.95,32.5-11.65,48.31-17.37,9.51-3.45,18.62-7.76,28.06-11.37,8.5-3.24,17.42-5.45,25.41-9.88C657.75,288.94,656.14,285.79,653.82,286.22Z"/><path class="cls-14" d="M413.81,490.7c-7.31-62-4.7-130.79-.9-193.08l-2.66.44a326.38,326.38,0,0,1,65.53-24.61L519.18,287a326.27,326.27,0,0,0-65.54,24.62l2.67-.44c-3.8,62.29-6.42,127.15.89,189.13Z"/><path class="cls-15" d="M539.7,284.49c-17,1.22-34.25,6.75-51.06,1.4-9.77-3.12-20.76-4.17-30.82-6.19-20.3-4.07-41.41-6.95-61.33-12.46C408,259.57,426.84,258,440.18,259A297.3,297.3,0,0,1,539.7,284.49Z"/><polygon class="cls-11" points="670.39 280.16 668.81 285.29 667.07 290.89 649.89 346.58 647.89 353.03 647.89 353.05 630.78 408.47 630.78 408.48 628.11 417.11 628.11 417.12 610.88 472.93 533.96 501.65 526.63 504.39 507.47 511.54 550.76 326.82 670.39 280.16"/><path class="cls-12" d="M668.81,285.29l-1.74,5.6c-8.11,6.9-17.7,12.54-26.34,18.59l-32.68,23c-21.55,15.11-42.77,32.42-65.82,45.17-1.31.72-2.83-1.09-1.64-2.14,19.2-16.78,41.87-30.41,62.73-45.05Q619.68,319,636,307.48C646.63,300.05,657.16,291,668.81,285.29Z"/><path class="cls-12" d="M649.89,346.58l-2,6.45h0q-27.42,18.48-53.82,38.4c-22.64,17.11-43.82,36.09-66.43,53.17-1.44,1.08-3.07-1.23-1.88-2.42,19.75-19.69,42.79-36.73,65-53.53Q619.69,366.73,649.89,346.58Z"/><path class="cls-12" d="M630.78,408.48l-2.67,8.62v0c-2.57,1.94-5.26,3.79-7.69,5.73q-6.7,5.32-13.33,10.79-13.19,11-26,22.43c-16.24,14.61-31.07,30.82-47.17,45.58l-7.33,2.74a1.91,1.91,0,0,1,.43-1.37c15.05-19.35,34.34-36.2,52.56-52.51q13.85-12.42,28.22-24.17C614.93,420.56,622.47,412.9,630.78,408.48Z"/><path class="cls-16" d="M510.6,288.38l54.73,12.14c15.29,3.39,31.64,2.11,45.44,9.35a8,8,0,0,1-1.72-.46l30.24-12.12c-28.67-7.13-58.85-10.07-88-14.73-7.23-1.15-14.58-2.31-21.86-1.44s-14.6,4-18.87,10l2.3-1.68"/><path class="cls-16" d="M608.36,416.27c-6.72,21.56-11.46,42.83-18.19,64.39-11.67,5.17-34.48,12.92-33.85,12.64,2.59-1.29,5.06-16.89,5.94-20.08q3.33-12,6.67-24.1,6.66-24.09,13.33-48.19,6.5-23.42,13-46.85,3.33-12,6.67-24.09c1.52-5.5,2.32-16.16,6-20.56,7.2-8.59,22.69-7.91,32.52-11.65-3.62,9.72-4,17.77-6.14,27.68s-5.09,19.31-7.63,29C621.16,375.22,614.58,395.68,608.36,416.27Z"/><path class="cls-17" d="M457.6,210.64l6.51,42.44"/><path class="cls-14" d="M494.35,194.76c3.19,4.54,4.95,9.91,6.57,15.22a416.49,416.49,0,0,1,15.89,79.49c-3.29,2-7.77.63-10.49-2.09s-4.09-6.47-5.38-10.09l-27.37-76.74C468.25,185.64,487.32,184.74,494.35,194.76Z"/><path class="cls-16" d="M447.2,221.17c-1.87-8.72-.4-23.18,8.45-28.33,3.7-2.15,10.52-2.87,14.8-3.77,2.86-.61,16.15.66,17.5-.57-15.43,13.95-5.62,38.37-.31,54.8s14.78,30.47,21.35,46.14c-10.74,4.44-31.43-16.64-37.92-23.49A94.6,94.6,0,0,1,447.2,221.17Z"/><path class="cls-14" d="M576.33,224.52c2.28-8.23-6-10.94-12.64-9.69-11.12,2.1-21.46,9.66-29,17.79-9.3,10-16,22.19-21.35,34.74-3,6.92-5.5,15.18-1.68,21.66,11.08-4.76,18.24-15.47,24.58-25.74s13-21.14,23.76-26.65c3.13-1.6,6.5-2.69,9.55-4.43S575.4,227.9,576.33,224.52Z"/><path class="cls-16" d="M593.16,239c-14.43,24-51,56.23-81.33,48.28,6.41-9.66,19.33-14.56,27.77-22.42,10.57-9.84,23.16-21.86,26.51-36.48,1.15-5,.33-10.73-3.25-14.42a57.93,57.93,0,0,1,23,4c4.57,1.8,9.37,4.75,10.44,9.55C597.22,231.46,595.26,235.48,593.16,239Z"/><path class="cls-15" d="M545,281.23c-5.53.63-10.92,2.33-16.38,3.4-6.05,1.19-12.14,2-18.24,2.86-1.33.2-1,2.45.32,2.37,11.3-.73,24.4-2.09,34.83-6.68A1.05,1.05,0,0,0,545,281.23Z"/><path class="cls-16" d="M455.49,308.63c-5.76-3-12.65-3.78-19-5.24-7.15-1.66-14.34-3.63-21.61-4.67-2.93-.42-4.19,3.54-1.25,4.52,7,2.32,14.27,3.76,21.4,5.47,6.3,1.52,12.86,4,19.37,3.85C456.44,312.52,457.41,309.63,455.49,308.63Z"/><path class="cls-18" d="M637,295.62c-5.18,0-9.49,3.93-14.42,5.58-5.37,1.8-11,2.73-16.34,4.63-1.74.62-1.59,3.44.46,3.38,5.76-.16,11.6-2,17.06-3.74,2.69-.86,5.3-2.08,8-2.88,3.38-1,4.55-.48,6.83-3.15A2.27,2.27,0,0,0,637,295.62Z"/><path class="cls-18" d="M578,239.48c-6.35,12-14.64,20.42-24.79,29.25-1.61,1.39.44,3.49,2.11,2.73,12-5.44,22-17.39,27.18-29.35C583.76,239.12,579.57,236.45,578,239.48Z"/><path class="cls-18" d="M582.22,226.28a3.29,3.29,0,1,0,3.29,3.29A3.32,3.32,0,0,0,582.22,226.28Z"/><path class="cls-18" d="M483,241.09c-1.46-7.06-6-13.23-7.64-20.47-1.75-7.91-1.54-15.8-1.1-23.83.1-1.83-2.63-2.1-3.13-.42a51.34,51.34,0,0,0-.84,24.3c1.34,7.11,3.92,17.44,9.86,22.08A1.72,1.72,0,0,0,483,241.09Z"/><polygon class="cls-4" points="300.81 497.49 335.14 326.74 145.65 360.38 183.94 523.74 300.81 497.49"/><polygon class="cls-19" points="336.76 326.74 211.78 285.09 39.49 319.12 147.26 360.38 336.76 326.74"/><path class="cls-11" d="M266.76,503.56c6.46-54.81,4.15-113.92.79-169l2.35.39A288.34,288.34,0,0,0,212,313.18l-38.38,12a288.43,288.43,0,0,1,58,21.77l-2.36-.39c3.36,55.09,5.68,114.19-.79,169Z"/><path class="cls-12" d="M155.42,323c15.07,1.07,30.29,6,45.16,1.23,8.64-2.75,18.36-3.68,27.25-5.47,18-3.6,36.62-6.15,54.24-11-10.13-6.78-26.84-8.21-38.64-7.3A263,263,0,0,0,155.42,323Z"/><polygon class="cls-7" points="39.85 319.12 92.48 489.59 183.94 523.74 145.65 360.38 39.85 319.12"/><path class="cls-20" d="M54.5,324.48c8,1.5,14.73,6.4,22.21,9.36,11,4.37,22.8,7.43,34.05,11.25,8.77,3,17.5,6,26.22,9.13,4,1.44,8.08,2.33,11.13,5,54-8.49,107.57-21.05,161.84-27.49.7-.08.72.92.16,1.14-26.63,10-54.92,14.43-82.85,19.4-25.53,4.55-51.16,8.66-76.63,13.58,1.89,8.41,2.87,17.13,4.64,25.54q3.4,16.2,6.87,32.38c4.34,20.49,8.78,41.1,11.45,61.87.13,1-1.41,1.12-1.68.23-6.38-21.15-10.89-43-15.53-64.56-2.17-10.1-4.37-20.2-6.5-30.3-1.66-7.84-3.84-16.35-4-24.57a4,4,0,0,1-2.82-4.33c-13.65-6.15-28.74-10.3-42.73-15.36-8.41-3-16.46-6.86-24.81-10C68,333.85,60.09,331.9,53,328,51,326.88,52.45,324.09,54.5,324.48Z"/><path class="cls-12" d="M181.16,326.39l-48.4,10.73c-13.52,3-28,1.87-40.18,8.27a7.18,7.18,0,0,0,1.51-.41L67.36,334.27c25.35-6.31,52-8.91,77.85-13,6.4-1,12.9-2.05,19.33-1.28s12.92,3.58,16.69,8.85l-2-1.49"/><path class="cls-10" d="M94.7,439.48c5.78,19.12,10,36.93,15.94,56l30.08,13.3c-2.29-1.14-4.46-16.12-5.24-18.94q-3-10.65-5.9-21.3-5.9-21.32-11.8-42.62l-11.46-41.43q-3-10.65-5.9-21.31c-1.35-4.86-2-14.28-5.3-18.18-6.36-7.6-20.07-7-28.76-10.3,3.2,8.6,3.52,15.71,5.43,24.48s4.5,17.07,6.75,25.61C83.4,403.23,89.25,421.42,94.7,439.48Z"/><path class="cls-8" d="M228,257.64q-2.88,18.76-5.75,37.53"/><path class="cls-10" d="M195.53,243.59c-2.82,4-4.38,8.77-5.81,13.46a367.6,367.6,0,0,0-14.05,70.3c2.91,1.76,6.87.55,9.28-1.85s3.61-5.72,4.75-8.92q12.11-33.93,24.2-67.86C218.61,235.53,201.75,234.73,195.53,243.59Z"/><path class="cls-12" d="M237.22,267c1.66-7.72.36-20.5-7.47-25-3.27-1.91-9.3-2.54-13.08-3.34-2.53-.53-14.28.58-15.49-.5,13.65,12.34,5,33.93.29,48.46s-13.07,27-18.89,40.8c9.5,3.93,27.8-14.71,33.53-20.77A83.53,83.53,0,0,0,237.22,267Z"/><path class="cls-11" d="M123,269.91c-2-7.28,5.31-9.68,11.18-8.57,9.84,1.86,19,8.55,25.65,15.73,8.23,8.86,14.12,19.63,18.88,30.73,2.63,6.12,4.87,13.42,1.49,19.15-9.8-4.21-16.13-13.68-21.74-22.76s-11.52-18.7-21-23.57c-2.76-1.41-5.75-2.38-8.44-3.91S123.86,272.9,123,269.91Z"/><path class="cls-12" d="M108.15,282.7c12.76,21.27,45.08,49.72,71.92,42.69-5.66-8.54-17.09-12.87-24.56-19.83-9.34-8.69-20.48-19.32-23.44-32.25-1-4.43-.29-9.5,2.87-12.76a51.33,51.33,0,0,0-20.36,3.53c-4,1.59-8.29,4.2-9.24,8.45C104.55,276.05,106.29,279.61,108.15,282.7Z"/><path class="cls-10" d="M213.78,333.17A56.31,56.31,0,0,0,196,330.59c-2.92,0-9.33-.16-4.41-5.62a11.51,11.51,0,0,1,4.39-2.71c15.87-6.45,36.88-4.25,51.56,4.46a53.32,53.32,0,0,1,25.53,46.85c-.25,6.6-1.74,13.12-1.85,19.72s1.43,13.66,6.2,18.23a26.05,26.05,0,0,1-20.31-17l.72,20.24c-8.4-.4-15.11-7.78-17.65-15.8s-1.86-16.63-1.53-25,.19-17.2-3.75-24.63C230.69,341.22,222.46,335.89,213.78,333.17Z"/><path class="cls-12" d="M215.31,328.84a56.51,56.51,0,0,0-17.88-1.24c-2.91.26-9.32.54-4.83-5.27a11.58,11.58,0,0,1,4.19-3c15.33-7.62,36.45-7,51.74.6a53.33,53.33,0,0,1,29,44.81c.25,6.6-.76,13.21-.37,19.8s2.44,13.51,7.54,17.71a26.06,26.06,0,0,1-21.52-15.46q1.11,10.06,2.23,20.13c-8.4.24-15.65-6.63-18.78-14.43s-3.1-16.45-3.4-24.86-1.1-17.17-5.58-24.28C232.77,335.61,224.16,330.91,215.31,328.84Z"/><path class="cls-11" d="M183,323.89a68.52,68.52,0,0,1,30.16-13.3c.77-.4,1.52-.81,2.25-1.28a39.12,39.12,0,0,0,6.51-5.61c.7-.71,2,.23,1.41,1.09a26.5,26.5,0,0,1-4.9,5.19c7.5-.49,14.87.7,21.26,4.26,1,.56.32,2.3-.8,1.89-9.69-3.5-19.26-4.26-29.29-1.5a71.18,71.18,0,0,0-13.83,5.53c-3.81,2-7.32,4.74-11.42,6C183.12,326.59,181.92,324.76,183,323.89Z"/><path class="cls-10" d="M150.78,320.06c4.89.56,9.66,2.06,14.49,3,5.34,1.05,10.74,1.76,16.13,2.53,1.18.17.9,2.17-.29,2.09-10-.65-21.58-1.85-30.8-5.9A.94.94,0,0,1,150.78,320.06Z"/><path class="cls-20" d="M192.79,393.86a4.32,4.32,0,0,0-2.38.56c-2.22,1-2.22,4.9,0,5.87a4.41,4.41,0,0,0,2.38.56c1.81-.22,3.58-1.45,3.49-3.5A3.59,3.59,0,0,0,192.79,393.86Z"/><path class="cls-20" d="M215.16,426c-1.68.08-3.47,1.46-3.31,3.31,0,.11,0,.22,0,.33a3.29,3.29,0,1,0,6.57,0l0-.33A3.33,3.33,0,0,0,215.16,426Z"/><path class="cls-20" d="M194.76,465.89c-3.24,0-3.25,5,0,5S198,465.89,194.76,465.89Z"/><path class="cls-20" d="M218.45,487.74c-4.77,0-4.77,7.4,0,7.4S223.22,487.74,218.45,487.74Z"/><path class="cls-20" d="M289.77,476.59l-.3-.49a3,3,0,0,0-5.19,0l-.31.49a3.35,3.35,0,1,0,5.8,0Z"/><path class="cls-20" d="M304.63,440.36c-3.92,0-3.93,6.1,0,6.1S308.57,440.36,304.63,440.36Z"/><path class="cls-20" d="M288.09,424.23l.12.08c-1.62-2-4.82-.28-4.82,2s3.21,4,4.82,2l-.12.08A2.43,2.43,0,0,0,288.09,424.23Z"/><path class="cls-20" d="M307.27,375c-3.37,0-3.37,5.23,0,5.23S310.64,375,307.27,375Z"/><path class="cls-20" d="M291.18,364.79a1.83,1.83,0,0,0-3.35,0,1.94,1.94,0,1,0,3.35,0Z"/><path class="cls-20" d="M126.76,378.6c-.22-1.57-1.26-3.13-3.06-3.05a3.16,3.16,0,0,0-3,3.05,3,3,0,0,0,.54,2.13,3,3,0,0,0,5,0A3,3,0,0,0,126.76,378.6Z"/><path class="cls-20" d="M140.81,411.31c-4.05,0-4.05,6.3,0,6.3S144.87,411.31,140.81,411.31Z"/><path class="cls-20" d="M138.84,453.54c-3.9,0-3.91,6.06,0,6.06S142.74,453.54,138.84,453.54Z"/><path class="cls-20" d="M158.2,500.83a4,4,0,0,0-1.2-1.9,2.5,2.5,0,0,0-3.43,0,4,4,0,0,0-1.2,1.9,3,3,0,1,0,5.83,0Z"/><path class="cls-20" d="M94.82,466.35l-.06-.31c-.56-2.6-4.71-2.6-5.27,0l-.06.31a2.8,2.8,0,1,0,5.39,0Z"/><path class="cls-20" d="M66.47,376.11c-3.64,0-3.64,5.64,0,5.64S70.1,376.11,66.47,376.11Z"/><path class="cls-20" d="M215.16,365.68l-.33,0c-3.54-.18-3.54,5.67,0,5.49l.33,0A2.73,2.73,0,0,0,215.16,365.68Z"/><path class="cls-20" d="M161.86,343.55a3.15,3.15,0,1,0,3.15,3.14A3.17,3.17,0,0,0,161.86,343.55Z"/><path class="cls-20" d="M193.45,338.76c-2.59,0-2.6,4,0,4S196,338.76,193.45,338.76Z"/><path class="cls-20" d="M98.7,322.28l-.1-.3a2.65,2.65,0,0,0-5.06,0l-.1.3a2.73,2.73,0,1,0,5.26,0Z"/><path class="cls-20" d="M119.41,312.24l-.25-.14a2.73,2.73,0,1,0,0,4.71l.25-.13A2.59,2.59,0,0,0,119.41,312.24Z"/><path class="cls-20" d="M268,318.37a2.66,2.66,0,0,0-2.31-1.33h-.4c-3.44,0-3.44,5.3,0,5.34h.4a2.68,2.68,0,0,0,2.31-1.33A2.62,2.62,0,0,0,268,318.37Z"/><path class="cls-20" d="M292.85,323.79c0-.12-.05-.37-.11-.82l0,0a3.13,3.13,0,0,0-3.91-2.51c-.55.18-.89.61-1.39.81.46-.38.46-.38,0,0a1.67,1.67,0,0,0-.61.6,4,4,0,0,0-.59,3.4,3.42,3.42,0,0,0,4.19,2.38A3.47,3.47,0,0,0,292.85,323.79Z"/><polygon class="cls-14" points="278.22 548.84 254.35 430.16 360.45 453.54 359.46 567.09 278.22 548.84"/><polygon class="cls-16" points="252.91 429.86 338.29 401.93 434.25 423.75 361.02 454.81 252.91 429.86"/><path class="cls-5" d="M300.08,555c-4.5-38.1-2.89-80.4-.55-118.69l-1.64.27a200.38,200.38,0,0,1,40.28-15.13l26.68,8.36a200.7,200.7,0,0,0-40.29,15.13l1.64-.27c-2.33,38.29-3.94,78.16.55,116.26Z"/><path class="cls-2" d="M377.46,428.24c-10.47.75-21,4.15-31.39.86-6-1.91-12.76-2.56-18.94-3.8-12.48-2.51-25.45-4.28-37.7-7.66,7.05-4.72,18.66-5.71,26.86-5.08A183,183,0,0,1,377.46,428.24Z"/><polygon class="cls-16" points="434 423.75 421.21 544.08 357.64 567.81 358.63 454.26 434 423.75"/><polygon class="cls-3" points="358.58 431.29 386.37 443.04 384.57 557.75 401.71 551.36 407.63 434.79 370.62 425.32 358.58 431.29"/><path class="cls-17" d="M327,382.85q2,13,4,26.08"/><path class="cls-5" d="M349.58,373.08a32.49,32.49,0,0,1,4,9.36,255.13,255.13,0,0,1,9.77,48.86c-2,1.22-4.78.39-6.45-1.28s-2.51-4-3.31-6.21l-16.82-47.16C333.54,367.48,345.26,366.93,349.58,373.08Z"/><path class="cls-3" d="M320.6,389.32c-1.15-5.36-.25-14.25,5.2-17.42,2.27-1.32,6.46-1.76,9.09-2.32,1.76-.37,9.93.41,10.76-.34-9.48,8.57-3.46,23.58-.19,33.68s9.08,18.73,13.12,28.37c-6.6,2.72-19.32-10.23-23.3-14.44A58.14,58.14,0,0,1,320.6,389.32Z"/><path class="cls-5" d="M400,391.38c1.4-5.06-3.69-6.73-7.77-6-6.84,1.29-13.2,5.94-17.84,10.94-5.71,6.15-9.81,13.64-13.12,21.35-1.82,4.26-3.38,9.33-1,13.32,6.81-2.93,11.21-9.52,15.11-15.82s8-13,14.61-16.39c1.91-1,4-1.65,5.86-2.72A8.4,8.4,0,0,0,400,391.38Z"/><path class="cls-3" d="M410.32,400.27c-8.87,14.78-31.34,34.56-50,29.67,3.94-5.93,11.88-8.95,17.07-13.78,6.49-6.05,14.24-13.43,16.3-22.42.7-3.08.2-6.6-2-8.87a35.8,35.8,0,0,1,14.15,2.45c2.82,1.11,5.76,2.93,6.42,5.88C412.82,395.64,411.62,398.12,410.32,400.27Z"/><path class="cls-5" d="M336.9,435.35a39,39,0,0,1,12.33-1.8c2,0,6.49-.11,3.07-3.9a8.13,8.13,0,0,0-3.06-1.89c-11-4.48-25.63-2.95-35.83,3.1a37.06,37.06,0,0,0-17.75,32.57c.17,4.59,1.21,9.12,1.29,13.71s-1,9.49-4.31,12.67A18.12,18.12,0,0,0,306.75,478q-.24,7-.5,14.07c5.84-.28,10.51-5.41,12.27-11s1.29-11.56,1.06-17.4-.13-12,2.61-17.13C325.15,440.94,330.87,437.24,336.9,435.35Z"/><path class="cls-2" d="M335.84,432.34a39.51,39.51,0,0,1,12.43-.87c2,.19,6.47.38,3.35-3.66a8.2,8.2,0,0,0-2.91-2.11c-10.66-5.29-25.34-4.86-36,.42a37,37,0,0,0-20.14,31.14c-.17,4.59.53,9.19.26,13.77s-1.7,9.39-5.24,12.31a18.09,18.09,0,0,0,15-10.75q-.78,7-1.55,14c5.84.17,10.88-4.6,13-10s2.16-11.43,2.36-17.27.77-11.94,3.88-16.89C323.7,437,329.68,433.77,335.84,432.34Z"/><path class="cls-2" d="M358.28,428.9a47.75,47.75,0,0,0-21-9.25,16.22,16.22,0,0,1-1.57-.89,26.67,26.67,0,0,1-4.52-3.9c-.49-.49-1.41.17-1,.76a18.92,18.92,0,0,0,3.41,3.61,26.48,26.48,0,0,0-14.77,3c-.7.39-.23,1.6.55,1.32a32.55,32.55,0,0,1,20.36-1.05,49,49,0,0,1,9.61,3.85c2.65,1.37,5.09,3.29,8,4.19C358.21,430.77,359.05,429.5,358.28,428.9Z"/><path class="cls-3" d="M380.69,426.24c-3.4.38-6.72,1.43-10.07,2.09-3.72.73-7.46,1.22-11.21,1.76-.82.12-.63,1.5.2,1.45,6.94-.45,15-1.28,21.4-4.1A.65.65,0,0,0,380.69,426.24Z"/><path class="cls-21" d="M507.4,370.06q0-18.8,10.28-30.25t28.48-11.45q18.2,0,28.48,11.45t10.28,30.25v87.5h86.32q18.79,0,30,10t11.16,28.77q0,18.81-10.87,29.07t-30.24,10.28H584.92v86.91q0,18.79-10.28,30.24t-28.48,11.45q-18.81,0-28.78-11.15t-10-30.54V535.66H421.08q-18.81,0-29.95-11.16T380,496.31q0-18.19,10.86-28.48t30.25-10.27H507.4Z"/></svg>