<svg width="81" height="81" viewBox="0 0 81 81" fill="none" xmlns="http://www.w3.org/2000/svg">
<path d="M74.25 16.875H61.911L60.6083 12.5314C60.3999 11.8358 59.9727 11.2261 59.3903 10.7926C58.8078 10.3591 58.1011 10.1249 57.375 10.125H25.65C24.9239 10.1249 24.2172 10.3591 23.6347 10.7926C23.0523 11.2261 22.6251 11.8358 22.4168 12.5314L21.114 16.875H6.75C5.85489 16.875 4.99645 17.2306 4.36351 17.8635C3.73058 18.4965 3.375 19.3549 3.375 20.25V67.5C3.375 68.3951 3.73058 69.2536 4.36351 69.8865C4.99645 70.5194 5.85489 70.875 6.75 70.875H74.25C75.1451 70.875 76.0036 70.5194 76.6365 69.8865C77.2694 69.2536 77.625 68.3951 77.625 67.5V20.25C77.625 19.3549 77.2694 18.4965 76.6365 17.8635C76.0036 17.2306 75.1451 16.875 74.25 16.875ZM70.875 64.125H10.125V23.625H23.625C24.3511 23.6251 25.0578 23.3909 25.6403 22.9574C26.2227 22.5239 26.6499 21.9142 26.8583 21.2186L28.161 16.875H54.864L56.1668 21.2186C56.3751 21.9142 56.8023 22.5239 57.3847 22.9574C57.9672 23.3909 58.6739 23.6251 59.4 23.625H70.875V64.125ZM40.5 23.625C37.1624 23.625 33.8998 24.6147 31.1248 26.4689C28.3497 28.3232 26.1868 30.9587 24.9095 34.0422C23.6323 37.1257 23.2981 40.5187 23.9492 43.7921C24.6004 47.0656 26.2076 50.0724 28.5676 52.4324C30.9276 54.7924 33.9344 56.3996 37.2079 57.0508C40.4813 57.7019 43.8743 57.3677 46.9578 56.0905C50.0413 54.8132 52.6768 52.6503 54.5311 49.8752C56.3853 47.1002 57.375 43.8376 57.375 40.5C57.3696 36.0261 55.59 31.737 52.4265 28.5735C49.263 25.41 44.9739 23.6304 40.5 23.625V23.625ZM40.5 50.625C38.4975 50.625 36.5399 50.0312 34.8749 48.9186C33.2098 47.8061 31.9121 46.2248 31.1457 44.3747C30.3794 42.5246 30.1789 40.4888 30.5695 38.5247C30.9602 36.5607 31.9245 34.7565 33.3405 33.3405C34.7565 31.9245 36.5607 30.9602 38.5247 30.5695C40.4888 30.1789 42.5246 30.3794 44.3747 31.1457C46.2248 31.9121 47.8061 33.2098 48.9186 34.8749C50.0312 36.5399 50.625 38.4975 50.625 40.5C50.625 43.1853 49.5583 45.7607 47.6595 47.6595C45.7607 49.5583 43.1853 50.625 40.5 50.625Z" fill="#828282"/>
</svg>
