<svg id="Layer_1" data-name="Layer 1" xmlns="http://www.w3.org/2000/svg" xmlns:xlink="http://www.w3.org/1999/xlink" viewBox="0 0 696.08 673.2"><defs><style>.cls-1{fill:url(#linear-gradient);}.cls-2{fill:#ffc19f;}.cls-3{fill:#e0956c;}.cls-4{fill:#84220f;}.cls-5{fill:#ff9797;}.cls-6{fill:#701608;}.cls-7{fill:#dd6b5b;}.cls-8{fill:#fff;}.cls-9{fill:#c4735b;}.cls-10{fill:#4c0b00;}.cls-11{fill:#f9feff;}.cls-12{fill:#773220;}.cls-13{fill:#63190d;}.cls-14{fill:#fefffe;}.cls-15{fill:#01996d;stroke:#00daa9;stroke-miterlimit:10;stroke-width:13px;}</style><linearGradient id="linear-gradient" x1="46.35" y1="311.05" x2="613.28" y2="311.05" gradientUnits="userSpaceOnUse"><stop offset="0" stop-color="#f9ed98"/><stop offset="1" stop-color="#fbb040"/></linearGradient></defs><path class="cls-1" d="M542.41,57.58a40.92,40.92,0,0,1,40.87,40.87v425.2a40.91,40.91,0,0,1-40.87,40.86H117.22a40.91,40.91,0,0,1-40.87-40.86V98.45a40.92,40.92,0,0,1,40.87-40.87H542.41m0-30H117.22A70.87,70.87,0,0,0,46.35,98.45v425.2a70.87,70.87,0,0,0,70.87,70.86H542.41a70.87,70.87,0,0,0,70.87-70.86V98.45a70.87,70.87,0,0,0-70.87-70.87Z"/><path class="cls-2" d="M70.84,274.93c36.54-4.5,70.87,31.14,76.64,79.33s-1.82,89.05-38.38,93.43-84.66-27.65-97-77.75C.6,322.85,20.88,281.08,70.84,274.93Z"/><path class="cls-3" d="M57.65,388.83c7.22,20,27.37,31.1,45,24.75s26.13-27.74,18.92-47.76-27.36-31.1-45-24.75S50.46,368.8,57.65,388.83Z"/><path class="cls-2" d="M499.06,274.93c-36.54-4.5-70.87,31.14-76.64,79.33s1.81,89.05,38.38,93.43,84.66-27.65,96.95-77.75C569.3,322.85,549,281.08,499.06,274.93Z"/><path class="cls-3" d="M512.24,388.83c-7.21,20-27.36,31.1-45,24.75s-26.13-27.74-18.92-47.76,27.36-31.1,45-24.75S519.44,368.8,512.24,388.83Z"/><path class="cls-4" d="M38.19,184.23C22.86,353.88,146.18,463.74,286.12,461s252.79-128.29,235.4-292.86C511.87,76.78,417-3.11,283.36.36,143.44,4,49.09,63.58,38.19,184.23Z"/><path class="cls-2" d="M483.87,160.43C453.49,76,380.26,74.8,284.39,74.8S115.29,76,84.9,160.43c-9.16,25.46-1.27,235.45,25,282.53,22.18,39.78,107.36,78.88,166.75,78.88h15.55c59.4,0,144.57-39.1,166.75-78.88C485.14,395.88,493,185.89,483.87,160.43Z"/><path class="cls-5" d="M112.35,391.24c-.59,9.82,12.58,18.59,29.41,19.58s31-6.15,31.53-16-12.6-18.58-29.42-19.57S112.93,381.43,112.35,391.24Z"/><path class="cls-5" d="M392.78,395.7c.79,9.8,15.05,16.64,31.86,15.28s29.78-10.41,29-20.21-15.07-16.64-31.86-15.28S392,385.9,392.78,395.7Z"/><path class="cls-6" d="M365.78,402.85c-3.22-16.8-29.06-12.45-71.24-12.73-2.21,0-10.79,0-13,0-42.19.28-68-4.07-71.24,12.73-6.21,32.38,34.53,67.74,77.37,67.87h.75C331.26,470.59,372,435.23,365.78,402.85Z"/><path class="cls-7" d="M288.4,471.39h-.74c-13.9-.05-28.31-4-41.72-11.36l-.82-.44.69-.61C257,449,271.94,443.49,288,443.49S319.11,449,330.27,459l.69.61-.82.44C316.71,467.4,302.27,471.34,288.4,471.39Z"/><path class="cls-8" d="M288,411.71c-29.48,0-54-9.14-57.1-21.27l-.18-.74H345.32l-.18.74C342,402.57,317.5,411.71,288,411.71Z"/><path class="cls-9" d="M266.38,369.56a2.26,2.26,0,0,0,2.19-1.94c1.15-7.88,7.26-13.07,15.57-13.24S299,359.28,300.21,367a2.26,2.26,0,1,0,4.46-.73c-1.61-9.84-10.08-16.57-20.62-16.37S265.56,356.94,264.1,367a2.27,2.27,0,0,0,1.91,2.57Z"/><path class="cls-4" d="M0,268.65c29.07-10.3,47.21-29.08,48.86-76.47-16.77-3.59-24.75-8.5-40.94-13.88C70.77,162.41,61.52,72.68,143.57,35.16,278.07-15.71,400.7,21.68,436,42.24c65.11,37.87,73.13,88.91,77.82,146.13,9,51.82,20.55,67.17,47.65,79-29.14,8.44-46.39.87-56.26-9.19,2.89,32.62,18,42.95,34.82,57.4-45.49,2.31-70.82-35.68-79-68.5-9.1-36.45,5.11-76.62-.63-90.9-3.32-8.26-33.28-56-45.84-56.34-27.38-.8-57.44,94.33-154.35,92.79,39.11-21.06,60.46-50.86,82-93.34A150.41,150.41,0,0,0,319.45,116c-79.54,70.45-164.58,80.57-232.94,74.68C97.81,246.19,114.4,304.4,28,330.94c7.84-9.7,19.28-38.83,21-61.84C39.72,274.82,22.77,279.84,0,268.65Z"/><path class="cls-10" d="M126.3,229.55a7.08,7.08,0,0,1-4.85-12.31c21-19.16,59-24.84,90.41-13.53A7.09,7.09,0,0,1,207.05,217c-26.29-9.52-59-4.94-76.05,10.66A7,7,0,0,1,126.3,229.55Z"/><path class="cls-10" d="M440.49,229.55a7.08,7.08,0,0,0,4.84-12.31c-21-19.16-59-24.84-90.4-13.53a7.08,7.08,0,0,0,4.8,13.33c26.3-9.52,59-4.94,76.06,10.66A7,7,0,0,0,440.49,229.55Z"/><path class="cls-11" d="M335.36,354.16s67.5,21.52,93.19-14c31.31-43.32-16.66-77.5-47.76-70.81C352,275.52,325.89,300.48,335.36,354.16Z"/><path class="cls-12" d="M433.6,284.87c-12.51-15.72-29.32-20.67-47.55-18.84-18.64,1.87-37.52,15.1-42.85,28.74,10-15.36,27.3-21,38.06-23.3,17.13-3.71,39.59,4,49.71,19.45,9,13.78,8.23,34.44-3.26,50.34C441.29,330.45,446.64,301.25,433.6,284.87Z"/><path class="cls-13" d="M350.7,308.8a30.33,30.33,0,1,0,39.39-17A30.33,30.33,0,0,0,350.7,308.8Z"/><path class="cls-14" d="M353.15,304a8.42,8.42,0,1,0,10.93-4.71A8.43,8.43,0,0,0,353.15,304Z"/><path class="cls-11" d="M233.44,354.48s-67.48,21.57-93.2-14C108.9,297.23,156.85,263,188,269.69,216.73,275.86,242.87,300.79,233.44,354.48Z"/><path class="cls-12" d="M135.15,285.26c12.5-15.73,29.31-20.69,47.55-18.87,18.64,1.86,37.52,15.07,42.86,28.71-10-15.36-27.31-21-38.07-23.28-17.13-3.69-39.6,4-49.7,19.5-9,13.77-8.21,34.44,3.29,50.33C127.5,330.85,122.13,301.65,135.15,285.26Z"/><path class="cls-13" d="M163.18,309.5a30.33,30.33,0,1,0,39.39-17A30.33,30.33,0,0,0,163.18,309.5Z"/><path class="cls-14" d="M165.63,304.68A8.42,8.42,0,1,0,176.56,300,8.41,8.41,0,0,0,165.63,304.68Z"/><path class="cls-15" d="M484.54,372.39q0-18.78,10.27-30.24t28.48-11.45q18.21,0,28.49,11.45t10.27,30.24v87.5h86.33q18.78,0,30,10t11.15,28.78q0,18.8-10.86,29.07T648.38,538H562.05v86.92q0,18.8-10.27,30.24T523.29,666.6q-18.79,0-28.77-11.16t-10-30.53V538H398.21q-18.79,0-29.95-11.15T357.1,498.65q0-18.19,10.87-28.48t30.24-10.28h86.33Z"/></svg>