<svg xmlns="http://www.w3.org/2000/svg" xmlns:xlink="http://www.w3.org/1999/xlink" viewBox="0 0 346.79 80.53"><defs><style>.cls-1{isolation:isolate;}.cls-2{fill:#5ada82;}.cls-3{fill:#01996d;}.cls-4{fill:gray;mix-blend-mode:multiply;opacity:0.5;}.cls-5{stroke:#fff;stroke-miterlimit:10;fill:url(#linear-gradient);}</style><linearGradient id="linear-gradient" x1="19.88" y1="36.56" x2="346.79" y2="36.56" gradientUnits="userSpaceOnUse"><stop offset="0" stop-color="#f9ed98"/><stop offset="1" stop-color="#fbb040"/></linearGradient></defs><g class="cls-1"><g id="Layer_1" data-name="Layer 1"><path class="cls-2" d="M74.15,35.1c-18.42-9.78-49-8.22-73,15.53a95,95,0,0,1,2.05-39.4C37.39-6.86,73.6-1.4,95.18,15.57A54.28,54.28,0,0,0,74.15,35.1Z"/><path class="cls-3" d="M73.81,33.11C55.48,23.88,26.2,25.27,2.38,46.9A93.93,93.93,0,0,1,4.71,12.6C37-4.23,71,.24,92.08,15.51A54.8,54.8,0,0,0,73.81,33.11Z"/><path class="cls-2" d="M75.4,13.56c-2.51-1-4.13-2.57-4.59-4.4a81.46,81.46,0,0,0-45.35-.49,34.58,34.58,0,0,1-9.69,6.45A90.77,90.77,0,0,0,5.67,20,92.08,92.08,0,0,0,4.19,36.7,81.4,81.4,0,0,1,13,31c2.9-1.62,5.37-1.53,6.89-.35A67.89,67.89,0,0,1,59.74,25a9.82,9.82,0,0,1,7.09-.77,56.23,56.23,0,0,1,8.49,3.29,55.69,55.69,0,0,1,9.23-9.41A65.92,65.92,0,0,0,75.4,13.56Z"/><path class="cls-3" d="M55.78,15.37c-3.4,5.53-9.39,10-15,10.83s-9.57-3-7.32-9.72S44.35,3.71,51.1,4.13,59.14,9.88,55.78,15.37Z"/><path class="cls-3" d="M25.3,19.45a12.21,12.21,0,0,1-6.32,7c-2.84,1.27-4.92.22-4.45-2.67s3.51-6.34,6.63-7.41S26,16.78,25.3,19.45Z"/><path class="cls-3" d="M70.55,19.47a7.11,7.11,0,0,1-6.81,2.21c-2.42-.56-3.57-2.56-2.24-4.63a6.93,6.93,0,0,1,7.31-2.43C71.39,15.41,72,17.63,70.55,19.47Z"/><path class="cls-4" d="M92.4,13.51C68.28,2.47,33.74,4.38,4.71,26.94A99.06,99.06,0,0,0,5.09,47C28.38,26.75,56.72,25.85,74.15,35.1a54.28,54.28,0,0,1,21-19.53C94.28,14.86,93.35,14.18,92.4,13.51Z"/><path class="cls-2" d="M80,39.22c-20.22-5.11-49.57,3.7-67.16,32.47A95.12,95.12,0,0,1,5.4,32.94c28.87-25.71,65.34-29,90.34-17.7A54.11,54.11,0,0,0,80,39.22Z"/><path class="cls-3" d="M79.16,37.37c-20-4.61-48.11,3.73-66.08,30.41A93.78,93.78,0,0,1,7.17,33.91c27.31-24,61.44-27.8,85.55-18A54.83,54.83,0,0,0,79.16,37.37Z"/><path class="cls-2" d="M76,18c-2.67-.38-4.62-1.52-5.5-3.18A81.42,81.42,0,0,0,26.38,25.15a34.49,34.49,0,0,1-7.87,8.57,92.33,92.33,0,0,0-8.64,7.16,92.16,92.16,0,0,0,2.54,16.56,82.12,82.12,0,0,1,7.2-7.64c2.43-2.25,4.85-2.76,6.61-2a68.05,68.05,0,0,1,37.34-15,9.81,9.81,0,0,1,6.7-2.43,57.28,57.28,0,0,1,9,1.16A55.81,55.81,0,0,1,86,20.2,66.31,66.31,0,0,0,76,18Z"/><path class="cls-3" d="M57.42,24.43c-2,6.19-6.73,11.94-12,14.1s-10-.6-9.43-7.69,7.57-15,14.23-16.2S59.38,18.3,57.42,24.43Z"/><path class="cls-3" d="M28.8,35.67a12.24,12.24,0,0,1-4.49,8.25c-2.45,1.91-4.72,1.38-5-1.53s1.91-7,4.68-8.78S28.87,32.89,28.8,35.67Z"/><path class="cls-3" d="M72.75,24.89a7.14,7.14,0,0,1-6.09,3.78c-2.49,0-4.08-1.65-3.28-4s3.84-4.26,6.52-4.11S73.73,22.76,72.75,24.89Z"/><path class="cls-4" d="M6.82,39.12a96.45,96.45,0,0,0,6.86,31.16C31.36,42.63,60.08,34.19,80,39.22a54.06,54.06,0,0,1,15.76-24C70,5.66,33.86,11.49,6.82,39.12Z"/><path class="cls-2" d="M82.84,40.93C62.18,38.06,34,50,19.61,80.53A95.19,95.19,0,0,1,8,42.82c25.9-28.7,61.79-36,87.88-27.44A54.14,54.14,0,0,0,82.84,40.93Z"/><path class="cls-3" d="M81.83,39.18c-20.38-2.39-47.41,9-62.37,37.44a93.93,93.93,0,0,1-9.57-33C34.42,16.73,67.94,9.26,93,16.38A54.81,54.81,0,0,0,81.83,39.18Z"/><path class="cls-2" d="M76.62,20.27c-2.7-.09-4.76-1-5.82-2.56A81.39,81.39,0,0,0,28,32.8a34.6,34.6,0,0,1-6.9,9.37,91.91,91.91,0,0,0-7.81,8.06,92.38,92.38,0,0,0,4.33,16.18A82.25,82.25,0,0,1,24,58c2.17-2.51,4.52-3.27,6.35-2.69a67.91,67.91,0,0,1,35.48-19,9.87,9.87,0,0,1,6.4-3.16,57.22,57.22,0,0,1,9.1.18,56.08,56.08,0,0,1,5.44-12A65.56,65.56,0,0,0,76.62,20.27Z"/><path class="cls-3" d="M58.81,28.69C57.52,35.06,53.42,41.3,48.4,44s-10,.49-10.21-6.62,5.89-15.74,12.37-17.65S60.09,22.39,58.81,28.69Z"/><path class="cls-3" d="M31.58,43A12.16,12.16,0,0,1,28,51.67c-2.22,2.17-4.54,1.89-5.09-1s1.13-7.16,3.69-9.23S31.35,40.22,31.58,43Z"/><path class="cls-3" d="M74.09,27.48a7.1,7.1,0,0,1-5.63,4.42c-2.47.3-4.23-1.19-3.7-3.59s3.35-4.65,6-4.79S74.84,25.25,74.09,27.48Z"/><path class="cls-5" d="M19.88,45.5V27.61a2.49,2.49,0,0,1,.78-1.92A2.6,2.6,0,0,1,22.51,25h8.07a2.71,2.71,0,0,1,1.93.66,2.6,2.6,0,0,1,0,3.56,2.71,2.71,0,0,1-1.94.65H25.15v4.2h5a2.72,2.72,0,0,1,1.94.66,2.61,2.61,0,0,1,0,3.56,2.71,2.71,0,0,1-1.94.65h-5v4.34h5.62a2.74,2.74,0,0,1,1.94.64,2.61,2.61,0,0,1,0,3.57,2.71,2.71,0,0,1-1.93.67H22.51a2.61,2.61,0,0,1-1.85-.72A2.49,2.49,0,0,1,19.88,45.5Zm15.34-2.57,5.09-13.7c.18-.47.31-.84.4-1.08s.23-.58.41-1a6,6,0,0,1,.48-.91c.15-.21.33-.45.55-.72a2.47,2.47,0,0,1,.68-.6,4,4,0,0,1,.83-.35,3.77,3.77,0,0,1,1-.14,3.94,3.94,0,0,1,1.06.14,4.08,4.08,0,0,1,.84.35,2.65,2.65,0,0,1,.7.59,8.5,8.5,0,0,1,.56.73,5.68,5.68,0,0,1,.49.92c.17.39.31.72.41,1s.24.61.41,1.08l5.06,13.7a17.62,17.62,0,0,1,.63,2A5.66,5.66,0,0,1,55,46.18a1.92,1.92,0,0,1-.7,1.56,2.74,2.74,0,0,1-1.83.59,2.27,2.27,0,0,1-1.77-.65,5.48,5.48,0,0,1-1-1.93l-.64-2.08H40.4l-.65,2.08a5.52,5.52,0,0,1-1,1.94,2.23,2.23,0,0,1-1.75.64,2.8,2.8,0,0,1-1.84-.59,1.92,1.92,0,0,1-.7-1.56,5.66,5.66,0,0,1,.15-1.28A19.39,19.39,0,0,1,35.22,42.93ZM47.49,38.8l-2.64-8.49h-.06L42,38.8Zm9.56,6.73V27.61a2.49,2.49,0,0,1,.78-1.92A2.64,2.64,0,0,1,59.69,25H66a7.92,7.92,0,0,1,5.63,2,6.78,6.78,0,0,1,2.12,5.21,6.3,6.3,0,0,1-5.4,6.51L73,43.61a5.31,5.31,0,0,1,.84,1.14,2.47,2.47,0,0,1,.27,1.15,1.84,1.84,0,0,1-.14.69,3.26,3.26,0,0,1-.43.79,2.27,2.27,0,0,1-.85.68,2.93,2.93,0,0,1-1.28.27A2.69,2.69,0,0,1,69.93,48a4.38,4.38,0,0,1-1.08-1l-6.46-8.16h-.06v6.67a2.77,2.77,0,0,1-.73,2.07,2.86,2.86,0,0,1-3.82,0A2.77,2.77,0,0,1,57.05,45.53Zm5.28-15.68V35H65.8a2.65,2.65,0,0,0,2-.74,2.58,2.58,0,0,0,.73-1.87,2.29,2.29,0,0,0-.78-1.82,2.77,2.77,0,0,0-1.93-.69Zm14.2,15.68v-18a2.8,2.8,0,0,1,.72-2.07,2.59,2.59,0,0,1,1.92-.72,2.66,2.66,0,0,1,.77.1,3.18,3.18,0,0,1,.58.23,2.55,2.55,0,0,1,.66.56c.28.29.51.55.69.77s.49.6.93,1.16l8.76,11h.06v-11a2.8,2.8,0,0,1,.72-2.07,2.91,2.91,0,0,1,3.83,0,2.8,2.8,0,0,1,.72,2.07v18a2.8,2.8,0,0,1-.72,2.07,2.55,2.55,0,0,1-1.91.73,3.22,3.22,0,0,1-.89-.11,2.17,2.17,0,0,1-.82-.51,8.67,8.67,0,0,1-.8-.81c-.24-.28-.61-.74-1.13-1.4l-8.75-11H81.8v11a2.8,2.8,0,0,1-.72,2.07,2.88,2.88,0,0,1-3.83,0A2.8,2.8,0,0,1,76.53,45.53Zm33.55,0V27.61a2.49,2.49,0,0,1,.78-1.92,2.64,2.64,0,0,1,1.86-.71h6.47a8.64,8.64,0,0,1,3,.5,7.82,7.82,0,0,1,2.52,1.45,6.66,6.66,0,0,1,1.79,2.48,8.36,8.36,0,0,1,.67,3.43,7.92,7.92,0,0,1-2.06,5.67,7.47,7.47,0,0,1-5.71,2.18h-4v4.84a2.77,2.77,0,0,1-.73,2.07,2.86,2.86,0,0,1-3.82,0A2.77,2.77,0,0,1,110.08,45.53Zm5.28-15.87V36h2.82a3.44,3.44,0,0,0,2.55-.94,3,3,0,0,0,.93-2.22,3,3,0,0,0-.93-2.35,3.74,3.74,0,0,0-2.55-.83Zm19-3.72a12.75,12.75,0,0,1,12,0,10.15,10.15,0,0,1,4,4.23,13.8,13.8,0,0,1,1.41,6.39,13.79,13.79,0,0,1-1.41,6.38,10.15,10.15,0,0,1-4,4.23,12.75,12.75,0,0,1-12,0,10.07,10.07,0,0,1-4-4.23A13.67,13.67,0,0,1,129,36.56a13.68,13.68,0,0,1,1.42-6.39A10.07,10.07,0,0,1,134.38,25.94Zm8.58,4a5.93,5.93,0,0,0-5.2,0,4.77,4.77,0,0,0-1.8,1.65,8,8,0,0,0-1,2.29,11.09,11.09,0,0,0,0,5.37,8.19,8.19,0,0,0,1,2.3,4.82,4.82,0,0,0,1.8,1.64,5.93,5.93,0,0,0,5.2,0,4.65,4.65,0,0,0,1.79-1.64,8.49,8.49,0,0,0,1-2.3,11.09,11.09,0,0,0,0-5.37,8.29,8.29,0,0,0-1-2.29A4.6,4.6,0,0,0,143,29.93Zm10.95,6.63a13.91,13.91,0,0,1,.83-4.85,11.53,11.53,0,0,1,2.3-3.84,10.31,10.31,0,0,1,3.63-2.51,12,12,0,0,1,4.73-.91,16,16,0,0,1,2.44.19,11.52,11.52,0,0,1,2.24.6,4,4,0,0,1,1.68,1.15,2.7,2.7,0,0,1,0,3.49,2,2,0,0,1-1.62.75,7.11,7.11,0,0,1-2-.55,7.68,7.68,0,0,0-2.59-.55,6,6,0,0,0-2.72.59,4.88,4.88,0,0,0-1.87,1.6,7.51,7.51,0,0,0-1,2.22,9.54,9.54,0,0,0-.34,2.62,9.23,9.23,0,0,0,.6,3.4,5.57,5.57,0,0,0,1.88,2.47,4.84,4.84,0,0,0,3,1,10.89,10.89,0,0,0,2-.17,6.12,6.12,0,0,0,1.32-.37,7.85,7.85,0,0,1,.93-.38,3,3,0,0,1,.93-.16,2.57,2.57,0,0,1,1,.19A1.59,1.59,0,0,1,172,43a2.23,2.23,0,0,1,.39.63,2.43,2.43,0,0,1,.19.63,3.12,3.12,0,0,1,0,.52,2.56,2.56,0,0,1-.48,1.51,3.75,3.75,0,0,1-1.25,1.12,8.13,8.13,0,0,1-1.74.73,11.85,11.85,0,0,1-1.94.42,13.41,13.41,0,0,1-1.88.13,12.48,12.48,0,0,1-4-.62,9.94,9.94,0,0,1-3.18-1.73,11.15,11.15,0,0,1-2.31-2.62,11.77,11.77,0,0,1-1.44-3.32A14.84,14.84,0,0,1,153.91,36.56Zm20.69,9v-18a2.8,2.8,0,0,1,.72-2.07,2.91,2.91,0,0,1,3.83,0,2.8,2.8,0,0,1,.72,2.07V34l7.25-7.89a4.41,4.41,0,0,1,1.27-1.07,2.63,2.63,0,0,1,3,.5,2.29,2.29,0,0,1,.85,1.76,3.18,3.18,0,0,1-1,2.11l-6.27,6.33,6.86,7.45c.36.38.62.66.77.85a4.09,4.09,0,0,1,.46.75,2.09,2.09,0,0,1,.23.92,2.42,2.42,0,0,1-.8,1.91,2.92,2.92,0,0,1-2,.7,2.28,2.28,0,0,1-.45,0,1.25,1.25,0,0,1-.44-.14L189.2,48a2,2,0,0,1-.4-.27l-.33-.28a2.46,2.46,0,0,1-.35-.34l-.31-.3-.31-.37-.29-.3-7.34-8.26v7.67a2.8,2.8,0,0,1-.72,2.07,2.88,2.88,0,0,1-3.83,0A2.8,2.8,0,0,1,174.6,45.53Zm20.1,0V27.61a2.48,2.48,0,0,1,.77-1.92,2.64,2.64,0,0,1,1.86-.71h8.07a2.71,2.71,0,0,1,1.93.66,2.6,2.6,0,0,1,0,3.56,2.71,2.71,0,0,1-1.94.65H200v4.2h5a2.72,2.72,0,0,1,1.94.66,2.61,2.61,0,0,1,0,3.56,2.71,2.71,0,0,1-1.94.65h-5v4.34h5.62a2.75,2.75,0,0,1,1.94.64,2.31,2.31,0,0,1,.7,1.79,2.35,2.35,0,0,1-.71,1.78,2.71,2.71,0,0,1-1.93.67h-8.26a2.65,2.65,0,0,1-1.86-.72A2.48,2.48,0,0,1,194.7,45.5Zm19.5,0V29.85h-2.95a2.87,2.87,0,0,1-2-.66,2.35,2.35,0,0,1-.71-1.78,2.3,2.3,0,0,1,.7-1.8,3,3,0,0,1,2-.63h11.18a3,3,0,0,1,2,.63,2.62,2.62,0,0,1,0,3.58,2.87,2.87,0,0,1-2,.66h-3V45.53a2.77,2.77,0,0,1-.73,2.07,2.86,2.86,0,0,1-3.82,0A2.81,2.81,0,0,1,214.2,45.53ZM236.48,40l2.08-11.91q.58-3.3,3.48-3.3a6,6,0,0,1,.89.06,2.29,2.29,0,0,1,.75.25,4,4,0,0,1,.61.38,2.29,2.29,0,0,1,.52.6,8.24,8.24,0,0,1,.45.75,7.6,7.6,0,0,1,.44,1c.17.43.31.83.43,1.19s.28.84.47,1.44l2.57,8h.07l2.57-8c.22-.71.4-1.25.53-1.64s.29-.82.48-1.29a8.27,8.27,0,0,1,.51-1.06,7.69,7.69,0,0,1,.54-.75,2.13,2.13,0,0,1,.67-.56,4.06,4.06,0,0,1,.79-.27,4,4,0,0,1,1-.11c1.94,0,3.1,1.1,3.5,3.3L261.93,40a57.61,57.61,0,0,1,.87,5.83,2.54,2.54,0,0,1-.69,1.73,2.31,2.31,0,0,1-1.79.77,3.39,3.39,0,0,1-1.2-.2,2.29,2.29,0,0,1-.83-.5,2.52,2.52,0,0,1-.52-.79,6,6,0,0,1-.31-.93c-.06-.28-.12-.64-.19-1.06L255.7,34.57h-.06L252.09,46A3.74,3.74,0,0,1,251,47.78a3.34,3.34,0,0,1-3.67,0A3.83,3.83,0,0,1,246.31,46l-3.56-11.39h-.06l-1.56,10.28a9.32,9.32,0,0,1-.26,1.32,4.48,4.48,0,0,1-.47,1.07,2,2,0,0,1-.89.82,3.43,3.43,0,0,1-1.44.27,2.27,2.27,0,0,1-1.78-.77,2.53,2.53,0,0,1-.68-1.73A57.61,57.61,0,0,1,236.48,40Zm33.77-14.06a12.75,12.75,0,0,1,12,0,10.07,10.07,0,0,1,4,4.23,13.8,13.8,0,0,1,1.42,6.39,13.79,13.79,0,0,1-1.42,6.38,10.07,10.07,0,0,1-4,4.23,12.75,12.75,0,0,1-12,0,10.09,10.09,0,0,1-4-4.23,13.79,13.79,0,0,1-1.41-6.38,13.8,13.8,0,0,1,1.41-6.39A10.09,10.09,0,0,1,270.25,25.94Zm8.57,4a5.91,5.91,0,0,0-5.19,0,4.63,4.63,0,0,0-1.8,1.65,8,8,0,0,0-1,2.29,11.09,11.09,0,0,0,0,5.37,8.21,8.21,0,0,0,1,2.3,4.68,4.68,0,0,0,1.8,1.64,5.91,5.91,0,0,0,5.19,0,4.68,4.68,0,0,0,1.8-1.64,8.17,8.17,0,0,0,1-2.3,11.09,11.09,0,0,0,0-5.37,8,8,0,0,0-1-2.29A4.63,4.63,0,0,0,278.82,29.93Zm11.55,15.6v-18a2.8,2.8,0,0,1,.72-2.07,2.59,2.59,0,0,1,1.91-.72,2.61,2.61,0,0,1,.77.1,3,3,0,0,1,.59.23,2.93,2.93,0,0,1,.66.56c.27.29.5.55.68.77s.5.6.94,1.16l8.75,11h.06v-11a2.81,2.81,0,0,1,.73-2.07,2.91,2.91,0,0,1,3.83,0,2.8,2.8,0,0,1,.72,2.07v18A2.8,2.8,0,0,1,310,47.6a2.58,2.58,0,0,1-1.92.73,3.28,3.28,0,0,1-.89-.11,2.33,2.33,0,0,1-.82-.51,10.12,10.12,0,0,1-.8-.81c-.23-.28-.61-.74-1.13-1.4l-8.75-11h-.06v11a2.8,2.8,0,0,1-.72,2.07,2.88,2.88,0,0,1-3.83,0A2.8,2.8,0,0,1,290.37,45.53Zm23.7,0V27.61a2.49,2.49,0,0,1,.78-1.92A2.63,2.63,0,0,1,316.7,25h8.07a2.71,2.71,0,0,1,1.93.66,2.26,2.26,0,0,1,.71,1.77,2.31,2.31,0,0,1-.7,1.79,2.7,2.7,0,0,1-1.94.65h-5.43v4.2h5a2.72,2.72,0,0,1,1.94.66,2.61,2.61,0,0,1,0,3.56,2.71,2.71,0,0,1-1.94.65h-5v4.34H325a2.74,2.74,0,0,1,1.94.64,2.31,2.31,0,0,1,.7,1.79,2.34,2.34,0,0,1-.7,1.78,2.75,2.75,0,0,1-1.94.67H316.7a2.64,2.64,0,0,1-1.85-.72A2.49,2.49,0,0,1,314.07,45.5Zm20.71,0V37.27l-4.55-6.11c-1-1.46-1.65-2.36-1.83-2.71a2.84,2.84,0,0,1-.35-1.33,2.07,2.07,0,0,1,.8-1.68,3,3,0,0,1,2-.65,2.75,2.75,0,0,1,.93.14,2,2,0,0,1,.76.47,7.07,7.07,0,0,1,.51.54,7.32,7.32,0,0,1,.47.62l3.91,5.56,3.91-5.56c.2-.28.36-.49.47-.62a7.07,7.07,0,0,1,.51-.54,2.08,2.08,0,0,1,.77-.47,2.65,2.65,0,0,1,.92-.14,3,3,0,0,1,2,.65,2,2,0,0,1,.8,1.68,2.71,2.71,0,0,1-.34,1.33,25.7,25.7,0,0,1-1.52,2.26l-.31.45-4.56,6.11v8.26a2.77,2.77,0,0,1-.73,2.07,2.86,2.86,0,0,1-3.82,0A2.81,2.81,0,0,1,334.78,45.53Z"/></g></g></svg>