<svg width="17" height="21" viewBox="0 0 17 21" fill="none" xmlns="http://www.w3.org/2000/svg">
<path d="M14.0118 4H4.01179C3.48136 4 2.97265 3.78929 2.59758 3.41421C2.22251 3.03914 2.01179 2.53043 2.01179 2C2.01179 1.46957 2.22251 0.960859 2.59758 0.585786C2.97265 0.210714 3.48136 0 4.01179 0H14.0118C14.5422 0 15.0509 0.210714 15.426 0.585786C15.8011 0.960859 16.0118 1.46957 16.0118 2C16.0118 2.53043 15.8011 3.03914 15.426 3.41421C15.0509 3.78929 14.5422 4 14.0118 4ZM4.01179 10L1.19579 12.757C0.395054 13.6433 -0.0295488 14.8063 0.0117915 16C-0.0310227 16.5362 0.0430684 17.0752 0.228946 17.58C0.414825 18.0847 0.708059 18.5431 1.08839 18.9234C1.46872 19.3037 1.92709 19.597 2.43182 19.7828C2.93656 19.9687 3.47563 20.0428 4.01179 20C6.01179 20 6.36279 19.4 7.85979 17.777L13.5118 11.566C13.8333 11.2014 14.0111 10.7321 14.0118 10.246V6H4.01179V10Z" fill="white"/>
</svg>
