<svg id="Layer_1" data-name="Layer 1" xmlns="http://www.w3.org/2000/svg" viewBox="0 0 345.27 91.1"><defs><style>.cls-1{fill:#01996d;}.cls-2{fill:#00daa9;}</style></defs><path class="cls-1" d="M47.5,84.6q-18.81,0-29.95-11.15T6.39,45.26q0-18.19,10.86-28.48T47.5,6.5H297.66q18.79,0,29.95,10t11.16,28.78q0,18.8-10.87,29.07T297.66,84.6Z"/><path class="cls-2" d="M47.5,91.1C33.23,91.1,21.61,86.71,13,78S-.11,58.36-.11,45.26c0-13.94,4.34-25.11,12.9-33.21S32.93,0,47.5,0H297.66c14.11,0,25.65,3.92,34.28,11.64,8.85,7.92,13.33,19.23,13.33,33.62s-4.34,25.7-12.9,33.79-20.14,12-34.71,12Zm250.16-13c11.3,0,19.73-2.78,25.78-8.5s8.83-13.58,8.83-24.34-2.94-18.51-9-23.94C317,15.72,308.63,13,297.66,13H47.5c-11.3,0-19.73,2.78-25.78,8.5s-8.83,13.39-8.83,23.76c0,9.65,3,17.37,9.25,23.59S36.66,78.1,47.5,78.1Z"/></svg>