<svg id="Layer_1" data-name="Layer 1" xmlns="http://www.w3.org/2000/svg" viewBox="0 0 344.86 348.9"><defs><style>.cls-1{fill:#01996d;}.cls-2{fill:#00daa9;}</style></defs><path class="cls-1" d="M133.93,48.19q0-18.78,10.28-30.24T172.69,6.5q18.19,0,28.48,11.45t10.28,30.24v87.5h86.32q18.8,0,30,10t11.16,28.77q0,18.81-10.86,29.07T297.77,213.8H211.45v86.91q0,18.8-10.28,30.24T172.69,342.4q-18.8,0-28.77-11.15t-10-30.54V213.8H47.61q-18.81,0-29.95-11.16T6.5,174.45q0-18.19,10.86-28.48t30.25-10.28h86.32Z"/><path class="cls-2" d="M172.69,348.9c-14.4,0-25.72-4.48-33.62-13.32-7.72-8.62-11.64-20.35-11.64-34.87V220.3H47.61c-14.27,0-25.89-4.4-34.55-13.07S0,187.55,0,174.45c0-13.94,4.34-25.11,12.9-33.2S33,129.19,47.61,129.19h79.82v-81c0-14.12,4-25.76,11.94-34.58C147.47,4.58,158.68,0,172.69,0S197.9,4.58,206,13.61C213.93,22.45,218,34.08,218,48.19v81h79.82c14.11,0,25.65,3.92,34.28,11.64,8.85,7.93,13.33,19.24,13.33,33.62s-4.34,25.7-12.9,33.79-20.13,12.06-34.71,12.06H218v80.41c0,14.11-4,25.75-11.94,34.58C197.9,344.32,186.69,348.9,172.69,348.9ZM47.61,142.19c-11.3,0-19.73,2.78-25.78,8.5S13,164.08,13,174.45c0,9.66,3,17.37,9.25,23.59s14.52,9.26,25.36,9.26h92.82v93.41c0,11.22,2.8,20,8.33,26.2s13.24,9,23.93,9c10.29,0,18-3,23.64-9.29,5.8-6.46,8.62-14.94,8.62-25.9V207.3h92.82c11.3,0,19.73-2.78,25.78-8.5s8.83-13.58,8.83-24.35-2.94-18.51-9-23.93c-6.26-5.6-14.64-8.33-25.61-8.33H205v-94c0-11-2.82-19.43-8.62-25.9C190.72,16,183,13,172.69,13s-18,3-23.64,9.29c-5.8,6.46-8.62,14.93-8.62,25.9v94Z"/></svg>