<svg width="71" height="71" viewBox="0 0 71 71" fill="none" xmlns="http://www.w3.org/2000/svg">
<path d="M35.5 65.0833C19.1616 65.0833 5.91667 51.8384 5.91667 35.5C5.91667 19.1616 19.1616 5.91666 35.5 5.91666C51.8384 5.91666 65.0833 19.1616 65.0833 35.5C65.0654 51.831 51.831 65.0654 35.5 65.0833ZM11.8333 36.0088C11.9733 49.0292 22.6049 59.4907 35.6259 59.4211C48.6468 59.3508 59.1653 48.7755 59.1653 35.7544C59.1653 22.7333 48.6468 12.1581 35.6259 12.0877C22.6049 12.0181 11.9733 22.4797 11.8333 35.5V36.0088ZM38.4583 50.2917H32.5417V38.4583H20.7083V32.5417H32.5417V20.7083H38.4583V32.5417H50.2917V38.4583H38.4583V50.2917Z" fill="#828282"/>
</svg>
